# xmcd
#
# Track frame offsets:
#	150
#	11264
#	40226
#	54576
#	65468
#	76134
#	90042
#	105284
#	119360
#	128990
#	137048
#	147524
#	162477
#	175761
#	185491
#	203845
#	217028
#	229844
#	240788
#	267878
#
# Disc length: 3579 seconds
#
# Revision: 0
# Processed by: cddbd v1.5.2PL0 Copyright (c) Steve Scherf et al.
# Submitted via: audiograbber 1.83.01
#
DISCID=090df914
DTITLE=Greatest hits of the 60's  - Greatest hits of the 60's
DYEAR=1900
DGENRE=Country
TTITLE0=The Move - Flowers In The Rain
TTITLE1=The Nice - America
TTITLE2=The Seekers - The Carnival Is Over
TTITLE3=The Shadows - Dance On
TTITLE4=The Shadows - F. B. I. - 1961
TTITLE5=The Small Faces - Lazy Sunday
TTITLE6=The Small Faces - Tin Soldier - 1967
TTITLE7=The Smoke - My Friend Jack Eats Sugarlumps
TTITLE8=The Swinging Blue Jeans - Good Golly Miss Molly - 1964
TTITLE9=The Swinging Blue Jeans - Hippy Hippy Shake
TTITLE10=The Swinging Blue Jeans - You're No Good
TTITLE11=The Tornados - Telstar
TTITLE12=The Turtles - Happy Together
TTITLE13=Tommy Bruce and The Bruisers - Ain't Misbehavin' - 1960
TTITLE14=Tommy James and The Shondelles - Crystal Blue Persuasion
TTITLE15=Tommy James and the Shondells - Hanky Panky - 1963
TTITLE16=Vikki Carr - It Must Be Him
TTITLE17=Zombies - She's Not There
TTITLE18=Zombies - Time Of The Season - 1968
TTITLE19=Data CD Fil
EXTD=
EXTT0=
EXTT1=
EXTT2=
EXTT3=
EXTT4=
EXTT5=
EXTT6=
EXTT7=
EXTT8=
EXTT9=
EXTT10=
EXTT11=
EXTT12=
EXTT13=
EXTT14=
EXTT15=
EXTT16=
EXTT17=
EXTT18=
EXTT19=
PLAYORDER=
